<svg xmlns="http://www.w3.org/2000/svg"  viewBox="0 0 50 50" width="50px" height="50px"><path d="M 19.042969 9.0039062 C 18.490969 9.0039062 18.042969 9.4529062 18.042969 10.003906 L 18.042969 12.103516 C 18.696969 12.037516 19.364922 12.003906 20.044922 12.003906 C 28.212922 12.003906 34.196719 16.598641 38.761719 21.306641 C 39.117719 21.674641 39.138547 22.253484 38.810547 22.646484 C 34.000547 28.396484 28.039969 33.003906 21.042969 33.003906 L 20.992188 33.003906 C 19.952871 32.95194 18.969476 32.811633 18.041016 32.587891 L 18.041016 29.492188 C 18.959538 29.815807 19.9597 30.001953 21.041016 30.001953 C 25.149016 30.001953 30.840016 26.681953 34.041016 22.001953 C 31.516016 18.764953 24.813016 15.001953 20.041016 15.001953 C 19.382278 15.001953 18.714662 15.059411 18.042969 15.166016 L 18.042969 12.103516 C 11.047969 12.806516 5.3514375 17.086375 0.3984375 21.234375 C 0.0784375 21.502375 -0.04134375 21.942937 0.09765625 22.335938 C 2.9324519 30.361359 9.160085 37.462465 18.039062 38.783203 L 18.041016 41.001953 C 18.041016 41.553953 18.489016 42.000953 19.041016 42.001953 L 49.042969 42.001953 C 49.593969 42.001953 50.042969 41.553953 50.042969 41.001953 L 50.042969 10.003906 C 50.042969 9.4529063 49.593969 9.0039062 49.042969 9.0039062 L 19.042969 9.0039062 z M 18.039062 15.166016 L 18.039062 18.052734 C 14.690451 18.383832 11.487968 20.319047 8.453125 22.533203 C 8.065125 22.816203 7.9336719 23.336531 8.1386719 23.769531 C 10.369364 28.48588 13.577025 31.510501 18.039062 32.587891 L 18.039062 35.605469 C 11.520701 33.935724 5.2198607 27.376551 4.0429688 23.001953 C 7.8949945 19.427857 13.093186 15.948183 18.039062 15.166016 z M 19.041016 18.001953 C 23.171016 18.001953 26.471234 19.068109 28.740234 21.287109 L 24.041016 25.001953 C 23.462016 23.390953 21.397016 21.001953 19.041016 21.001953 C 18.7242 21.001953 18.388594 21.041844 18.042969 21.109375 L 18.042969 18.052734 C 18.373685 18.018998 18.706322 18.001953 19.041016 18.001953 z M 18.039062 21.111328 L 18.039062 29.492188 C 15.255948 28.508864 13.234724 26.248491 12.042969 24.001953 C 13.629905 22.926674 16.024902 21.505445 18.039062 21.111328 z M 40.042969 26.003906 L 45.734375 29.726562 C 40.602375 34.646563 31.033969 39.003906 21.042969 39.003906 C 20.011642 39.003906 19.009426 38.927019 18.041016 38.783203 L 18.041016 35.605469 C 19.042395 35.862162 20.04859 36.003906 21.042969 36.003906 C 27.941969 36.003906 35.529969 30.651906 40.042969 26.003906 z"/></svg>